<svg width="46" height="46" viewBox="0 0 46 46" fill="none" xmlns="http://www.w3.org/2000/svg">
<g clip-path="url(#clip0_250_184)">
<path d="M45.816 21.0383C45.816 18.4349 43.698 16.3168 41.0945 16.3168C38.4911 16.3168 36.373 18.4349 36.373 21.0383C36.373 22.2226 36.8124 23.3055 37.535 24.1351L32.6542 28.6126L26.4292 15.7482L30.0675 11.4748L23.3416 3.57465L16.6159 11.475L20.0922 15.5581L13.9117 28.5394L9.09931 24.1327C9.82095 23.3033 10.2593 22.2214 10.2593 21.0383C10.2593 18.4349 8.14122 16.3168 5.53777 16.3168C2.93411 16.3168 0.81604 18.4349 0.81604 21.0383C0.81604 23.4507 2.63547 25.4453 4.97404 25.7251L6.42079 43.0572H40.2115L41.6582 25.7251C43.9966 25.4453 45.816 23.4507 45.816 21.0383Z" fill="#E3B100"/>
</g>
<defs>
<clipPath id="clip0_250_184">
<rect width="45" height="45" fill="white" transform="translate(0.81604 0.815918)"/>
</clipPath>
</defs>
</svg>
