<svg width="294" height="16" viewBox="0 0 294 16" fill="none" xmlns="http://www.w3.org/2000/svg">
<path d="M2.76039 7.34787H110.602" stroke="#1C2420" stroke-width="1.61648"/>
<path d="M182.408 7.60814H290.252" stroke="#1C2420" stroke-width="1.61648"/>
<path d="M146.606 14.3619C146.606 14.3619 141.406 11.5598 139.218 8.50513C137.027 5.44792 138.67 1.37247 141.954 1.37247C145.236 1.37247 146.606 4.1745 146.606 4.1745C146.606 4.1745 148.352 1.37247 151.634 1.37247C154.918 1.37247 156.543 5.24579 154.542 8.50513C152.541 11.7645 146.606 14.3619 146.606 14.3619Z" stroke="#1C2420" stroke-width="0.808241"/>
<path d="M169.666 11.7644C169.666 11.7644 166.803 9.97053 165.598 8.01494C164.393 6.05934 165.298 3.45188 167.104 3.45188C168.913 3.45188 169.666 5.24577 169.666 5.24577C169.666 5.24577 170.626 3.45188 172.435 3.45188C174.244 3.45188 175.139 5.93048 174.037 8.01494C172.933 10.1019 169.666 11.7644 169.666 11.7644Z" stroke="#1C2420" stroke-width="0.808241"/>
<path d="M122.32 11.7644C122.32 11.7644 119.458 9.97053 118.252 8.01494C117.047 6.05934 117.952 3.45188 119.761 3.45188C121.567 3.45188 122.32 5.24577 122.32 5.24577C122.32 5.24577 123.283 3.45188 125.089 3.45188C126.899 3.45188 127.793 5.93048 126.691 8.01494C125.59 10.1019 122.32 11.7644 122.32 11.7644Z" stroke="#1C2420" stroke-width="0.808241"/>
</svg>
