<svg width="201" height="200" viewBox="0 0 201 200" fill="none" xmlns="http://www.w3.org/2000/svg">
<g clip-path="url(#clip0_18_2)">
<path d="M74.0193 111.309C72.8359 111.492 71.8401 112.087 70.8897 112.777C70.7422 112.882 70.5911 113.021 70.6476 113.239C72.0622 112.877 76.255 111.728 76.8922 110.499C75.9801 110.781 75.0388 111.238 74.0193 111.309Z" fill="#1C2420"/>
<path d="M69.8262 115.244C70.0556 115.477 70.2395 115.129 70.4307 115.011C71.4593 114.372 72.1675 113.856 73.3455 113.328C71.8107 113.095 70.2067 114.053 69.8262 115.244Z" fill="#1C2420"/>
<path d="M74.3831 109.41C73.8096 109.944 73.0869 110.273 72.4515 110.739C69.3892 113.17 74.2848 110.634 74.6307 109.534C74.729 109.381 74.5106 109.201 74.3831 109.41Z" fill="#1C2420"/>
<path d="M111.388 98.1556C110.576 98.9038 110.136 99.8141 109.266 100.508C107.705 101.999 106.669 103.812 105.854 105.784C105.375 107.293 106.89 105.493 106.984 104.992C107.947 102.299 111.057 101.178 111.388 98.1556Z" fill="#1C2420"/>
<path d="M108.415 100.666C108.947 99.7431 109.198 98.7381 109.207 97.6713C108.989 97.1342 108.561 98.3959 108.419 98.587C107.594 100.53 106.118 102.063 105.093 103.881C103.156 107.051 108.211 101.241 108.415 100.666Z" fill="#1C2420"/>
<path d="M108.802 103.703C107.511 104.817 107.655 107.102 106.348 108.293C105.485 109.36 106.606 108.801 107.018 108.355C107.555 107.848 107.915 107.22 108.261 106.645C108.627 105.722 109.157 104.608 108.802 103.703Z" fill="#1C2420"/>
<path d="M90.0172 86.9699C87.8616 88.0568 85.9391 89.486 85.3929 91.962C85.3638 92.0421 85.2545 92.1896 85.5367 92.2697C86.6418 90.2179 88.3787 88.6376 90.0773 87.0846C90.0536 87.0373 90.039 86.9936 90.0154 86.9699H90.0172Z" fill="#1C2420"/>
<path d="M85.1088 90.7004C86.3523 89.0855 87.4483 87.7419 88.8538 86.3528C87.0059 86.9154 85.2982 88.6759 85.1088 90.7004Z" fill="#1C2420"/>
<path d="M86.9746 91.9801C88.2181 90.8422 89.1957 89.2601 90.2316 87.8983C90.197 87.871 90.1588 87.8528 90.126 87.8237C88.8917 88.8942 86.6214 90.114 86.9746 91.9801Z" fill="#1C2420"/>
<path d="M80.5295 102.126C79.5555 103.078 78.6543 103.65 78.17 105.168C80.1872 103.311 82.1534 101.962 83.9959 100.218C84.1088 100.109 84.3363 100.056 84.2708 99.7847C82.9509 100.48 81.569 101.014 80.5295 102.124V102.126Z" fill="#1C2420"/>
<path d="M80.6899 99.898C80.0781 100.841 79.1569 101.666 78.9202 102.784C78.8638 103.017 79.0677 103.155 79.2097 102.94C80.3439 101.116 82.2993 99.8598 83.368 98.0501C82.3175 98.4634 81.3744 99.0023 80.6899 99.898Z" fill="#1C2420"/>
<path d="M97.285 121.885C99.0364 120.562 99.8958 118.528 101.214 116.833C101.589 116.272 102.719 114.745 102.528 114.124C100.853 116.795 98.6741 119.073 97.2832 121.885H97.285Z" fill="#1C2420"/>
<path d="M99.9212 122.956C101.947 121.984 103.885 119.384 104.837 117.303C102.805 118.738 102.046 121.236 99.9958 122.661C99.923 122.709 99.7482 122.776 99.9194 122.956H99.9212Z" fill="#1C2420"/>
<path d="M95.9213 120.739C96.4529 120.649 96.8753 119.3 97.2777 118.849C97.8093 117.64 100.984 114.911 100.595 113.884C98.7633 116.012 96.9973 118.126 95.9195 120.739H95.9213Z" fill="#1C2420"/>
<path d="M77.5534 102.289C77.486 102.445 77.4387 102.636 77.6098 102.817C78.7495 101.531 79.7308 100.155 80.9743 98.9223C79.1136 98.8931 78.2161 100.836 77.5515 102.289H77.5534Z" fill="#1C2420"/>
<path d="M119.431 93.069C118.163 94.9697 118.382 95.911 120.053 93.7007C120.86 92.2971 123.736 89.8811 123.234 88.2735C122.369 90.2216 120.446 91.2448 119.431 93.069Z" fill="#1C2420"/>
<path d="M121.006 88.1953C120.917 88.2335 120.829 88.2372 120.811 88.2754C120.398 88.9855 119.823 89.5662 119.264 90.1652C117.805 91.3286 115.979 97.1581 118.85 92.4937C119.462 91.0282 120.968 89.8411 121.004 88.1953H121.006Z" fill="#1C2420"/>
<path d="M118.776 88.1132C118.084 89.7189 116.761 90.9697 115.878 92.5044C114.483 96.0655 118.066 90.3033 118.479 89.8081C118.745 89.4185 119.248 88.4318 118.778 88.1132H118.776Z" fill="#1C2420"/>
<path d="M102.803 80.1298C102.257 79.986 101.445 81.1402 101.265 81.4297C100.99 81.9103 100.526 83.4396 101.176 83.0391C101.627 82.0396 102.405 81.0947 102.803 80.1298Z" fill="#1C2420"/>
<path d="M189.978 157.758C189.965 157.596 189.925 157.434 189.88 157.277C189.765 156.88 189.596 156.503 189.364 156.159C188.6 155.022 187.773 153.933 186.737 153.017C185.525 151.947 184.247 150.962 182.925 150.033C181.155 148.79 179.342 147.615 177.516 146.459C175.688 145.3 173.831 144.191 171.941 143.148C169.021 141.531 166.112 139.889 163.115 138.418C162.157 137.946 161.205 137.46 160.264 136.958C158.454 135.991 156.603 135.101 154.87 133.995C153.876 133.362 152.923 132.674 152.082 131.838C150.955 130.717 150.276 129.373 150.096 127.785C150.005 126.995 149.938 126.203 149.856 125.413C149.838 125.222 149.823 125.031 149.785 124.843C149.741 124.63 149.472 124.552 149.339 124.721C149.171 124.934 149.026 125.169 148.891 125.404C148.261 126.511 147.487 127.496 146.488 128.293C144.915 129.548 142.817 130.187 140.795 129.985C137.436 129.65 134.324 126.984 130.865 127.88C129.908 128.128 128.944 128.561 127.943 128.574C127.04 128.587 126.139 128.608 125.236 128.643C124.18 128.681 123.168 128.461 122.177 128.128C121.444 127.88 120.79 127.485 120.227 126.943C119.752 126.487 119.317 125.996 118.904 125.482C118.715 125.246 118.571 124.982 118.482 124.69C118.121 123.518 118.005 122.327 118.234 121.115C118.403 120.221 118.898 119.545 119.377 118.803C119.652 118.373 119.601 117.969 119.212 117.658C118.716 117.262 118.039 117.068 117.504 116.718C116.938 116.347 116.426 115.899 115.998 115.374C114.913 114.035 114.453 112.542 115.041 110.847C115.585 109.281 116.666 108.342 118.338 108.411C118.583 108.42 118.829 108.422 119.075 108.418C119.237 108.416 119.419 108.425 119.512 108.26C119.61 108.083 119.486 107.946 119.385 107.819C119.148 107.519 118.904 107.222 118.667 106.92C118.157 106.268 118.041 105.527 118.245 104.742C118.684 103.062 119.732 101.968 121.416 101.52C122.651 101.19 123.86 101.349 125.041 101.786C125.616 102 126.164 102.428 126.751 102.579C127.277 102.716 127.635 102.445 127.865 101.993C128.227 101.285 128.395 100.542 128.866 99.883C129.321 99.2458 129.922 98.727 130.603 98.3428C130.841 98.2081 131.078 98.0625 131.329 97.9605C133.212 97.2013 135.02 97.3506 136.735 98.4466C137.72 99.0783 138.481 99.9358 139.14 100.89C139.651 101.634 140.161 102.381 140.665 103.133C141.71 104.693 143.065 105.895 144.754 106.716C145.419 107.038 146.073 107.384 146.732 107.719C148.303 108.516 149.579 109.645 150.56 111.112C150.957 111.704 151.347 112.303 151.784 112.866C152.712 114.065 153.149 115.456 153.799 116.802C154.067 117.361 154.473 117.801 155.035 118.076C155.576 118.34 156.115 118.61 156.668 118.843C158.209 119.487 159.763 120.092 161.295 120.754C163.153 121.557 165.038 122.295 166.949 122.965C168.988 123.68 171.015 124.43 172.999 125.286C174.958 126.131 176.893 127.032 178.849 127.886C180.478 128.597 182.118 129.282 183.759 129.972C185.548 130.726 187.34 131.474 189.131 132.22C189.712 132.464 190.306 132.676 190.875 132.943C192.461 133.688 194.072 134.371 195.704 135.011C196.825 135.452 197.99 135.758 199.163 136.031C199.623 136.138 200.088 136.127 200.541 135.974C200.647 135.94 200.747 135.883 200.759 135.758C200.772 135.639 200.699 135.548 200.612 135.481C200.346 135.279 200.048 135.146 199.729 135.053C199.389 134.957 199.046 134.858 198.7 134.777C197.26 134.431 195.858 133.966 194.497 133.391C192.104 132.379 189.712 131.363 187.331 130.325C184.949 129.286 182.572 128.237 180.21 127.152C178.421 126.329 176.655 125.451 174.878 124.601C172.406 123.416 169.86 122.426 167.313 121.426C165.862 120.858 164.417 120.272 162.995 119.633C161.549 118.981 160.149 118.233 158.813 117.364C157.779 116.693 156.772 115.986 155.836 115.183C154.618 114.136 153.675 112.862 152.801 111.529C152.365 110.865 151.935 110.195 151.469 109.554C150.637 108.407 149.601 107.479 148.357 106.799C147.518 106.339 146.661 105.911 145.809 105.476C144.441 104.775 143.291 103.834 142.481 102.507C142.109 101.9 141.738 101.292 141.365 100.684C140.979 100.054 140.591 99.4243 140.13 98.8417C139.355 97.8622 138.442 97.0502 137.314 96.4931C136.99 96.3493 136.669 96.1927 136.34 96.0616C136.138 95.9815 135.923 95.9251 135.71 95.8796C133.086 95.3134 130.78 95.9906 128.761 97.7074C128.282 98.1134 127.93 98.6268 127.652 99.1858C127.477 99.539 127.249 100.75 126.734 100.584C126.448 100.491 126.172 100.375 125.893 100.26C124.022 99.4934 122.148 99.5171 120.309 100.335C119.669 100.62 119.111 100.995 118.642 101.456C118.534 100.646 118.42 99.559 118.725 99.4789C119.796 99.1985 120.832 98.6705 121.64 97.9041C122.509 97.0793 122.964 95.9997 123.86 95.1732C124.941 94.1737 126.07 93.0522 126.048 91.4683C126.022 89.8498 126.194 87.8799 125.28 86.4543C124.562 85.0834 123.792 83.7235 122.736 82.5765C122.299 82.0958 122.237 81.6243 122.414 81.0108C123.191 78.8534 122.778 76.4211 123.774 74.351C124.926 72.1317 125.928 69.8378 126.785 67.4947C129.205 61.4248 122.441 57.5142 118.127 54.7851C112.854 51.5499 107.212 48.7972 101.255 47.1004C100.527 46.9147 99.369 46.5251 98.6753 46.4159C94.6755 45.3435 90.6101 45.9735 86.8032 47.47C81.7657 48.6716 76.8847 50.4394 72.2076 52.7024C66.8969 54.6613 61.6718 58.2916 55.7859 57.4996C54.3567 57.3649 53.2935 56.3581 52.0391 55.7537C48.0101 53.6418 43.688 52.1216 39.9212 49.5091C36.5204 47.1641 33.5492 44.1201 29.4947 42.9221C28.0018 42.4852 26.64 41.7424 25.2564 41.0378C24.2787 40.8813 25.3438 42.0574 25.666 42.2667C27.5576 43.8088 29.9189 44.6444 31.6849 46.3612C36.5131 51.0384 43.1946 54.0387 46.7739 59.8628C48.2814 63.6278 46.1895 67.4692 45.0935 71.0503C44.0285 75.072 41.07 78.2198 39.0583 81.6862C41.7309 79.7527 44.0321 76.9436 45.5414 73.9396C47.6351 69.6211 49.9017 65.1425 53.8142 62.1986C54.6698 61.8399 53.5684 64.265 53.4555 64.5635C52.7145 66.1201 52.5543 67.8497 52.1975 69.5156C51.7241 71.7039 52.1574 73.9323 52.5998 76.0934C52.8329 77.0546 53.8506 80.9197 54.6826 81.1091C53.2134 77.3168 53.0914 70.4859 54.8847 66.8393C54.8118 73.2277 57.3643 79.3468 62.0214 83.7235C62.553 84.1804 64.5156 86.1503 65.0891 85.8554C59.5071 80.978 55.7039 72.4121 58.3274 65.0533C60.9545 59.0872 67.758 56.6276 73.5002 54.6832C88.4418 48.2547 99.0777 45.491 113.852 54.4556C118.17 57.5087 125.842 59.9574 125.269 66.3932C124.91 68.76 124.047 71.0631 122.946 73.1768C122.751 73.4025 122.585 73.0202 122.503 72.8727C122.066 72.0353 121.485 71.2451 120.745 70.6607C118.097 68.8711 116.918 72.8145 116.415 74.7516C115.689 76.9217 117.211 78.8006 117.97 80.7286C118.447 81.8009 118.911 82.866 119.212 84.0038C119.397 84.7029 119.503 84.8267 118.565 84.9651C112.055 85.7625 103.545 75.8512 106.966 69.7013C108.821 65.574 111.916 62.2914 115.583 59.6771C115.787 59.4349 116.375 59.2292 116.257 58.8724C112.224 60.0539 108.96 63.4876 106.406 66.7774C105.357 68.0008 104.864 68.3012 104.842 66.3878C104.481 62.9705 105.12 59.424 105.293 56.1433C103.494 58.7304 103.511 62.5081 103.545 65.6304C103.607 66.3168 103.675 67.065 103.232 67.6403C102.943 67.9116 102.786 67.4401 102.692 67.2252C101.108 63.138 101.182 58.6047 100.842 54.3318C99.9224 57.3449 99.7203 60.7767 99.9443 63.97C100.944 68.4687 100.299 71.571 95.5931 72.2027C91.788 73.0002 89.5924 76.6468 88.2597 80.0349C87.6516 81.1601 88.4309 82.216 87.1109 82.9588C85.9239 83.769 84.9936 84.8486 83.9923 85.859C82.2317 87.4648 82.0515 89.8006 81.4871 91.9817C81.2541 92.8993 80.7006 93.4436 79.8267 93.7677C78.4158 94.2865 77.176 95.1058 76.0982 96.149C73.431 98.4065 75.3881 101.099 72.9049 101.487C65.2019 103.295 64.1278 111.096 66.4527 117.627C68.0839 121.761 69.1563 120.847 67.7872 125.741C67.7544 125.879 67.7071 126.045 67.9019 126.156C68.2769 125.26 69.6478 122.557 69.7443 125.126C69.9865 126.662 70.3633 128.434 71.6268 129.448C71.3646 128.115 70.5417 126.715 70.9932 125.288C71.6341 123.693 73.0924 126.03 73.2071 126.872C73.411 127.463 73.7405 130.494 74.4396 130.356C73.6386 124.792 75.9908 130.454 78.4194 130.16C75.725 128.086 74.1374 125.031 71.8289 122.566C68.9742 119.316 66.7859 114.819 67.1172 110.415C67.2537 109.925 67.5214 109.583 68.0767 109.49C68.8741 109.367 69.5768 109.004 70.2559 108.595C71.6377 107.752 72.9759 106.876 74.0537 105.642C74.4178 105.217 74.5944 105.223 75.0222 105.507C76.8191 107.12 77.6839 109.576 79.4936 111.233C82.8253 114.839 86.6394 118.093 89.1063 122.409C89.3302 122.795 89.3211 122.861 88.9643 123.099C88.4418 123.456 87.9666 123.886 87.5624 124.361C86.024 126.329 84.4256 128.275 82.1516 129.386C84.9954 128.894 86.8979 126.551 88.8259 124.588C89.8946 123.66 89.8473 123.731 90.337 125.013C90.408 125.202 90.3789 125.379 90.2132 125.522C88.8551 126.793 88.0686 128.612 86.3736 129.537C85.9785 129.755 86.4537 129.875 86.6485 129.699C88.1396 129.04 89.1172 127.651 90.3097 126.593C92.0611 125.768 90.124 131.967 84.3928 130.769C84.726 131.27 87.4241 131.569 86.0222 132.14C83.4789 133.009 80.7607 132.737 78.1409 132.805C75.8797 132.792 73.1634 131.62 71.2154 130.549C65.5424 128.993 62.3473 127.085 56.4831 121.772C50.812 116.636 44.9624 111.686 40.3582 105.561C38.0952 102.527 37.3251 98.3337 38.1298 94.6452C39.1438 90.2503 41.7928 86.3178 44.673 82.9188C45.0917 82.6038 48.1667 77.9795 46.5773 79.314C43.4295 82.5801 39.8557 85.5368 37.7056 89.6131C36.2964 91.5611 34.2738 92.9284 31.9179 93.4618C21.2474 95.6028 11.0539 89.1907 1.76711 84.7448C1.45397 84.5882 1.14447 84.4226 0.798558 84.3789C-0.204587 84.2933 -0.133584 85.4366 0.365258 86.0302C2.91226 90.1847 8.85103 91.8961 13.0165 93.8988C19.709 97.6656 26.7256 100.475 33.8259 103.375C37.6036 105.374 39.5225 109.119 42.3317 112.154C47.666 117.789 54.0144 122.322 60.057 127.132C62.1943 128.772 64.0604 130.194 66.7112 130.95C69.1144 131.631 71.5649 132.071 73.8461 133.142C76.2256 134.201 78.7617 135.234 81.4016 134.795C83.6463 134.422 85.8911 133.935 87.9976 133.051C90.1713 132.135 92.6036 130.748 92.6273 128.062C92.6692 127.572 92.2304 126.187 93.1571 126.449C93.909 126.662 94.6245 127.267 95.4474 127.474C96.274 127.68 97.126 127.709 97.958 127.512C98.7208 127.332 99.6038 126.631 100.274 126.236C101.881 125.293 103.835 124.27 104.922 122.701C105.892 121.302 106.873 119.651 107.427 118.036C107.742 117.119 107.826 116.216 107.809 115.252C107.807 115.125 107.705 113.286 107.733 113.279C109.308 112.997 110.677 112.7 112.129 111.988C112.701 111.708 113.165 111.413 113.564 111.076C113.327 111.954 113.313 112.873 113.535 113.825C113.988 115.759 115.073 117.255 116.772 118.295C117.027 118.451 117.276 118.622 117.515 118.801C117.637 118.892 117.655 119.038 117.586 119.172C117.524 119.292 117.449 119.409 117.364 119.515C116.635 120.399 116.32 121.437 116.29 122.559C116.237 124.517 116.777 126.298 118.001 127.846C118.567 128.561 119.253 129.135 120.058 129.579C121.384 130.314 122.796 130.684 124.304 130.657C125.232 130.642 126.159 130.553 127.087 130.5C127.661 130.467 128.234 130.427 128.808 130.411C130.825 130.354 132.609 131.39 134.361 132.255C135.806 132.969 137.359 133.464 138.976 133.575C141.621 133.759 144.174 133.269 146.784 133.959C148.483 134.409 150.111 135.044 151.698 135.792C154.429 137.081 156.929 138.76 159.456 140.399C160.97 141.38 162.487 142.363 164.073 143.23C166.088 144.333 168.109 145.429 170.119 146.543C171.293 147.191 172.46 147.85 173.614 148.533C175.57 149.687 177.52 150.851 179.459 152.034C180.322 152.562 181.194 153.077 182.06 153.598C183.325 154.359 184.609 155.098 185.783 156.001C186.499 156.551 187.194 157.128 187.893 157.698C188.15 157.907 188.412 158.104 188.718 158.233C188.893 158.308 189.075 158.375 189.262 158.404C189.736 158.482 190.013 158.231 189.974 157.763L189.978 157.758ZM118.598 79.7054C118.114 78.2253 116.901 76.7743 117.437 75.1521C117.883 73.8995 118.29 72.5104 119.202 71.5382C120.661 70.637 122.143 73.9505 122.072 75.1412C122.121 76.9254 121.493 83.4995 120.282 84.3334C119.769 82.7658 119.279 81.2019 118.598 79.7072V79.7054ZM92.6947 76.0442C93.1316 75.6437 93.5977 74.9719 94.2567 75.3851C95.573 76.0806 95.939 76.7506 95.7078 78.218C95.3327 79.9931 94.528 83.2301 92.2395 83.0589C89.8127 82.1414 88.7804 81.9247 90.4135 79.2903C90.8741 78.0578 91.7898 77.0528 92.6965 76.0442H92.6947ZM73.6823 104.669C72.1675 106.397 70.1885 107.917 67.951 108.524C67.8054 108.533 67.7034 108.447 67.7198 108.3C67.8272 106.985 68.2168 105.824 69.362 105.028C70.6055 104.2 71.9964 103.289 73.5311 104.212C73.593 104.232 73.8971 104.48 73.6823 104.671V104.669ZM78.556 97.2468C77.6129 98.1171 76.6808 99.0073 76.0035 100.132C75.856 100.38 75.5666 100.247 75.643 99.9759C75.5283 98.8471 78.9219 95.2278 80.0634 95.774C80.0398 96.2746 78.8891 96.7935 78.5578 97.2468H78.556ZM105.047 119.738L105.067 119.749C104.048 122.32 101.688 123.791 99.5128 125.273C95.766 126.955 93.4193 124.923 91.2582 121.972C89.5141 119.684 87.3804 117.725 85.7509 115.351C84.0542 113.013 82.1152 110.901 79.9069 109.046C78.0007 107.557 75.9107 104.582 76.2693 102.146C77.1723 99.7647 80.2091 95.956 82.9909 96.1836C84.482 96.1927 85.01 97.8494 86.1424 98.5577C86.7869 99.0711 87.4241 99.5808 88.1031 100.051C92.935 103.624 98.3658 106.472 102.806 110.541C105.838 113.175 107.463 115.988 105.047 119.738ZM110.953 110.417C109.774 110.863 107.658 111.293 106.449 110.71C99.2907 107.256 93.3282 101.476 86.9198 96.7808C82.8307 93.795 82.4211 91.6631 85.1975 87.3774C86.5265 85.473 89.2082 83.7107 91.5878 84.4371C96.3905 86.0447 100.503 89.1507 105.182 91.075C109.013 93.0631 113.063 95.2697 115.838 98.6341C116.956 99.9886 116.774 101.715 116.211 103.258C115.27 105.849 113.721 109.368 110.953 110.417ZM118.735 97.4908C116.608 97.7093 115.177 95.5555 113.737 94.2993C110.293 90.4924 104.199 89.999 100.645 86.7456C101.614 85.4221 103.773 84.2787 103.554 82.4563C103.283 82.5474 103.192 82.7986 103.074 83.0134C102.353 84.3406 100.98 85.118 100.279 86.4562C100.199 86.6182 100.032 86.6419 99.8714 86.5381C99.2397 85.7334 102.045 83.9856 102.22 83.0626C102.145 82.4527 99.4145 85.2382 99.3635 85.677C99.1578 86.0629 99.054 86.0811 98.6844 85.8718C97.3445 85.058 95.6258 84.7448 94.8648 83.2465C94.6791 82.9515 95.0687 82.6693 95.1871 82.409C96.061 80.9653 96.4815 79.4032 96.5398 77.7191C96.8274 76.4247 94.7956 75.1922 95.644 74.8208C98.9684 74.0579 102.313 75.5654 105.126 77.2349C105.401 77.3969 105.657 77.5735 105.819 77.8666C107.924 81.242 111.126 84.368 114.97 85.5896C116.442 85.9209 117.957 86.3579 119.443 85.8536C120.056 85.6478 120.741 85.8244 121.1 85.1472C121.22 84.9578 121.394 84.9378 121.589 85.0707C123.807 86.6928 125.558 89.8061 124.315 92.4678C123.388 93.5383 122.339 94.5232 121.642 95.7812C121.058 96.8336 119.876 97.3488 118.736 97.4908H118.735Z" fill="#1C2420"/>
<path d="M133.593 122.892C133.964 123.593 134.317 124.305 134.709 124.993C135.202 125.858 135.858 126.586 136.644 127.2C137.645 127.981 138.761 128.179 139.97 127.862C140.799 127.644 141.562 127.26 142.204 126.69C143.029 125.954 143.764 125.135 144.003 124.008C144.404 122.113 145.25 120.454 146.55 119.025C146.905 118.636 147.136 118.168 147.318 117.676C147.422 117.394 147.524 117.112 147.635 116.831C147.934 116.09 147.963 115.333 147.746 114.576C147.309 113.057 146.404 111.903 145.015 111.146C144.249 110.711 143.419 110.596 142.557 110.643C141.403 110.709 140.278 110.925 139.191 111.31C138.117 111.688 137.023 111.825 135.887 111.763C135.097 111.721 134.301 111.73 133.511 111.766C132.244 111.825 131.191 112.336 130.405 113.356C130.236 113.574 130.092 113.807 130.01 114.07C129.699 115.045 129.697 116.008 130.11 116.959C130.319 117.438 130.582 117.887 130.918 118.288C131.361 118.814 131.729 119.389 132.054 119.992C132.577 120.953 133.081 121.925 133.593 122.892Z" fill="#1C2420"/>
<path d="M130.206 103.794C130.574 104.768 131.018 105.708 131.22 106.744C131.33 107.303 131.712 107.731 132.247 107.951C132.837 108.193 133.458 108.289 134.095 108.14C135.129 107.898 136.038 107.423 136.806 106.68C137.394 106.112 137.789 105.438 137.951 104.634C138.244 103.168 137.858 101.917 136.728 100.929C136.462 100.698 136.14 100.532 135.918 100.384C135.61 100.248 135.39 100.133 135.16 100.051C133.884 99.5943 132.639 99.6653 131.424 100.277C130.478 100.754 129.626 102.039 130.083 103.403C130.126 103.534 130.159 103.667 130.206 103.794Z" fill="#1C2420"/>
<path d="M120.04 123.039C120.381 124.527 121.271 125.572 122.624 126.234C122.77 126.311 122.912 126.395 123.063 126.457C124.537 127.085 126.174 126.728 127.261 125.544C128.685 123.995 128.75 121.099 127.398 119.475C127.345 119.411 127.29 119.349 127.235 119.291C126.567 118.583 125.996 118.45 125.104 118.841C124.648 119.041 124.181 119.171 123.702 119.285C123.037 119.444 122.374 119.608 121.721 119.804C120.834 120.072 120.323 120.716 120.055 121.579C119.906 122.062 119.929 122.551 120.04 123.039Z" fill="#1C2420"/>
<path d="M125.05 102.813C123.097 101.719 120.954 102.522 120.204 104.625C119.827 105.684 120.08 106.696 120.901 107.465C121.203 107.751 121.554 107.954 122.013 108.184C122.144 108.238 122.366 108.351 122.599 108.426C123.432 108.69 124.253 108.983 125.061 109.313C125.718 109.58 126.405 109.764 127.127 109.766C128.416 109.771 129.075 108.513 128.8 107.572C128.677 107.146 128.485 106.756 128.225 106.4C127.661 105.63 127.095 104.859 126.525 104.093C126.128 103.56 125.629 103.137 125.05 102.813Z" fill="#1C2420"/>
<path d="M117.732 110.377C116.758 110.984 116.208 111.89 116.253 113.045C116.308 114.45 117.034 115.461 118.311 116.054C118.849 116.303 119.427 116.307 120 116.231C120.796 116.125 121.578 116.161 122.361 116.329C122.574 116.374 122.791 116.407 123.009 116.42C123.625 116.46 124.206 116.32 124.73 115.994C125.516 115.506 125.651 114.689 125.08 113.96C124.825 113.633 124.495 113.387 124.173 113.134C123.359 112.489 122.536 111.856 121.724 111.209C121.424 110.969 121.107 110.76 120.619 110.505C120.523 110.461 120.282 110.326 120.024 110.241C119.244 109.979 118.454 109.93 117.73 110.379L117.732 110.377Z" fill="#1C2420"/>
</g>
<defs>
<clipPath id="clip0_18_2">
<rect width="200.77" height="117.418" fill="white" transform="translate(0 41)"/>
</clipPath>
</defs>
</svg>
