<svg width="149" height="148" viewBox="0 0 149 148" fill="none" xmlns="http://www.w3.org/2000/svg">
<g clip-path="url(#clip0_108_192)">
<path d="M105.793 81.6084C95.7067 69.1146 91.4234 52.1526 75.8046 52.1526C60.1858 52.1526 55.9013 69.1146 45.8139 81.6084C36.7905 92.7852 22.5738 97.9887 22.5738 113.502C22.5738 131.597 36.0699 146.267 52.7147 146.267C61.9867 146.267 67.2052 134.559 75.8046 134.559C84.4002 134.559 89.6225 146.267 98.892 146.267C115.539 146.267 129.034 131.597 129.034 113.502C129.034 97.9887 114.816 92.7852 105.793 81.6084Z" fill="#A3B18A"/>
<path d="M71.2936 23.9903C71.2936 37.2367 63.0639 47.9782 52.9097 47.9782C42.7555 47.9782 34.5246 37.2367 34.5246 23.9903C34.5246 10.7413 42.7555 0.00109863 52.9097 0.00109863C63.0639 0.00109863 71.2936 10.7413 71.2936 23.9903Z" fill="#A3B18A"/>
<path d="M114.476 23.9903C114.476 37.2367 106.245 47.9782 96.0923 47.9782C85.9381 47.9782 77.7072 37.2367 77.7072 23.9903C77.7072 10.7413 85.9381 0.00109863 96.0923 0.00109863C106.245 0.00109863 114.476 10.7413 114.476 23.9903Z" fill="#A3B18A"/>
<path d="M36.6725 58.4579C39.1663 71.4691 33.1023 83.5712 23.1298 85.4893C13.1586 87.4063 3.05484 78.4135 0.561083 65.4023C-1.93015 52.3936 4.13134 40.2903 14.1038 38.3734C24.0738 36.4539 34.1788 45.4467 36.6725 58.4579Z" fill="#A3B18A"/>
<path d="M147.179 68.5837C142.687 81.0448 131.303 88.3445 121.754 84.8875C112.203 81.433 108.104 68.5305 112.596 56.0694C117.088 43.6107 128.471 36.3098 138.022 39.7655C147.571 43.2213 151.67 56.125 147.179 68.5837Z" fill="#A3B18A"/>
</g>
<defs>
<clipPath id="clip0_108_192">
<rect width="149" height="147.358" fill="white"/>
</clipPath>
</defs>
</svg>
