<svg width="49" height="48" viewBox="0 0 49 48" fill="none" xmlns="http://www.w3.org/2000/svg">
<g clip-path="url(#clip0_229_184)">
<path d="M28.6556 21.2267C28.6197 21.1998 28.5801 21.181 28.5368 21.1697C28.4934 21.1584 28.4497 21.156 28.4053 21.1625C28.3609 21.169 28.3192 21.1834 28.2806 21.2062C28.2424 21.2291 28.2096 21.2585 28.1826 21.2943C28.1557 21.3302 28.1369 21.3698 28.1256 21.4132C28.1147 21.4569 28.1119 21.5006 28.1184 21.545C28.1249 21.5894 28.1393 21.6311 28.1621 21.6696C28.185 21.7082 28.2144 21.741 28.2502 21.7676C29.1719 22.453 30.0489 23.1913 30.8811 23.9829C31.7136 24.7741 32.495 25.6132 33.2254 26.4997C33.9562 27.3858 34.6307 28.313 35.2491 29.2811C35.8672 30.2496 36.4248 31.2515 36.9217 32.2872C38.7842 36.1959 39.3654 39.9205 38.5192 42.509C37.7423 44.8841 35.7945 46.1391 32.8887 46.1391C29.6097 46.1391 26.523 45.1505 24.1981 43.3546L24.0171 43.2125C24.5161 42.646 24.9576 42.0378 25.3418 41.3879C26.4755 39.45 26.7433 37.6227 26.0565 36.5016C25.7201 35.9511 24.9904 35.3152 23.4373 35.4074C21.4358 35.5249 20.272 36.6395 20.3287 38.3896C20.3734 39.9516 21.3979 41.7625 23.0507 43.2692C20.9898 45.3752 17.9325 47.0129 14.4144 46.8791C11.9666 46.7855 10.2435 45.9229 9.29207 44.3094C7.07682 40.5615 9.29207 33.2014 12.1155 27.5631C13.6806 24.4296 15.9969 22.2628 19.0003 21.1239C21.2466 20.2706 23.0548 20.3464 23.0763 20.3477C23.1214 20.3498 23.1648 20.3436 23.2071 20.3283C23.2495 20.3132 23.287 20.2907 23.3205 20.2607C23.3536 20.2306 23.3799 20.1951 23.399 20.1545C23.4182 20.1138 23.4291 20.0711 23.4311 20.0264C23.4335 19.9817 23.427 19.9379 23.412 19.8956C23.397 19.8536 23.3744 19.8157 23.3444 19.7826C23.314 19.7491 23.2788 19.7228 23.2382 19.7037C23.1979 19.6846 23.1552 19.6736 23.1101 19.6716C23.0319 19.6716 21.1626 19.5848 18.7852 20.483C16.5986 21.3053 13.5604 23.15 11.5046 27.2629C10.099 30.0775 5.74296 39.646 8.70539 44.6556C9.78655 46.4744 11.691 47.4483 14.382 47.5525C14.5264 47.5525 14.6685 47.5607 14.8116 47.5607C18.3675 47.5607 21.4587 45.8604 23.5561 43.706C23.6306 43.7671 23.7064 43.8279 23.7832 43.8859C26.2269 45.7795 29.4598 46.8128 32.8873 46.8128C36.9637 46.8128 38.5489 44.5853 39.1598 42.716C40.06 39.9653 39.4668 36.0566 37.5313 31.9939C37.0228 30.9336 36.4518 29.9081 35.819 28.9171C35.1863 27.9264 34.4958 26.9771 33.7479 26.0701C33 25.1627 32.2003 24.3042 31.3486 23.4939C30.4966 22.6839 29.5991 21.9281 28.6556 21.2267ZM23.5035 42.7771C22.8581 42.1993 22.3035 41.5447 21.8398 40.8132C21.3101 39.9598 21.0195 39.117 20.9963 38.3787C20.956 36.9991 21.8371 36.1864 23.4752 36.0904C23.5653 36.0849 23.6517 36.0822 23.7347 36.0822C24.5755 36.0822 25.1604 36.3445 25.4794 36.8639C26.0203 37.7538 25.7499 39.3605 24.7565 41.0567C24.3935 41.67 23.9758 42.2434 23.5035 42.7771Z" fill="#1C2420"/>
<path d="M10.1677 21.6192C10.9883 20.6183 11.4046 19.3332 11.4046 17.7982C11.4046 15.7114 10.0044 13.0443 8.14708 11.5934C6.98498 10.6857 5.79147 10.3503 4.69664 10.6235C1.51667 11.4202 0.00283813 12.9173 0.00283813 19.2793C0.00283813 21.066 0.54342 22.352 1.62458 23.104C2.43563 23.6695 3.42766 23.8491 4.3671 23.8491C5.42709 23.8327 6.45908 23.6524 7.46204 23.3082C7.72533 23.2447 7.98214 23.1603 8.23177 23.0555C8.48174 22.9503 8.72146 22.8263 8.95163 22.6826C9.18145 22.5391 9.3983 22.3783 9.60251 22.1997C9.80638 22.0214 9.99489 21.8278 10.1677 21.6192ZM7.28891 22.6508C7.27695 22.6508 7.26329 22.6508 7.251 22.6631C7.21754 22.6754 3.90199 23.8696 2.01252 22.548C1.12737 21.9303 0.67865 20.8307 0.67865 19.2793C0.67865 12.8104 2.3342 11.9123 4.86022 11.2795C5.05487 11.2317 5.25191 11.2078 5.45236 11.2078C6.34571 11.2078 7.16187 11.6825 7.7308 12.1261C9.43928 13.461 10.7288 15.8995 10.7288 17.7982C10.7288 21.5379 8.09585 22.4534 7.28891 22.6508Z" fill="#1C2420"/>
<path d="M43.8175 10.6235C42.7227 10.3531 41.5306 10.6857 40.3685 11.5933C38.5114 13.0443 37.111 15.7114 37.111 17.7982C37.111 19.3332 37.5272 20.6182 38.3478 21.6191C38.5206 21.8275 38.7088 22.0204 38.9127 22.1987C39.1166 22.3766 39.3334 22.5374 39.5629 22.6805C39.7927 22.8236 40.0324 22.9475 40.2821 23.052C40.5314 23.1569 40.7878 23.2409 41.0508 23.3041C42.0544 23.6483 43.0867 23.8286 44.1474 23.8453C45.0852 23.8453 46.0799 23.6654 46.8896 23.0998C47.9708 22.3479 48.5114 21.0618 48.5114 19.2752C48.5114 12.9173 46.9979 11.4202 43.8175 10.6235ZM46.503 22.548C44.6108 23.8696 41.297 22.6754 41.2645 22.6631L41.2253 22.6508C40.4142 22.4575 37.7868 21.5379 37.7868 17.7982C37.7868 15.905 39.0749 13.461 40.7834 12.1261C41.3523 11.6825 42.1685 11.2078 43.0618 11.2078C43.2623 11.2078 43.4597 11.2317 43.654 11.2795C46.18 11.9123 47.8355 12.8104 47.8355 19.2793C47.8355 20.8306 47.3868 21.9302 46.503 22.548Z" fill="#1C2420"/>
<path d="M13.5738 13.9195C14.3848 14.4833 15.3769 14.6633 16.316 14.6633C17.3763 14.6462 18.4079 14.4659 19.4112 14.1224C19.6742 14.0585 19.9307 13.9745 20.1799 13.8697C20.4296 13.7649 20.6693 13.6406 20.8988 13.4975C21.1286 13.354 21.3451 13.1935 21.549 13.0153C21.7529 12.8374 21.9414 12.6441 22.1142 12.4358C22.9348 11.4362 23.351 10.1502 23.351 8.61621C23.351 6.16021 21.4995 2.47622 19.4666 0.888287C18.5056 0.137692 17.5286 -0.145062 16.6431 0.0769064C13.3522 0.899215 11.9493 3.89477 11.9493 10.0945C11.9493 11.8798 12.4954 13.1676 13.5738 13.9195ZM16.8067 0.732909C16.9539 0.695686 17.1034 0.677587 17.2554 0.678612C17.8178 0.678612 18.4192 0.927558 19.0503 1.41999C21.091 3.0144 22.6752 6.59698 22.6752 8.61518C22.6752 12.3531 20.0423 13.2741 19.2354 13.4678L19.1978 13.4783C19.164 13.4906 15.8485 14.6862 13.959 13.365C13.0738 12.7469 12.6251 11.6459 12.6251 10.0959C12.6251 5.98161 13.121 1.65391 16.8067 0.732909Z" fill="#1C2420"/>
<path d="M29.141 14.1196C30.1443 14.4635 31.176 14.6438 32.2359 14.6606C33.1754 14.6606 34.1702 14.4806 34.9785 13.9168C36.0596 13.1648 36.6002 11.8771 36.6002 10.0918C36.6002 3.89201 35.1974 0.895095 31.9064 0.0741534C31.0209 -0.147474 30.0439 0.132207 29.083 0.885534C27.0555 2.47346 25.1985 6.16019 25.1985 8.61379C25.2012 11.9665 27.2328 13.6542 29.141 14.1196ZM29.502 1.4186C30.133 0.926171 30.7344 0.678591 31.2968 0.678591C31.4488 0.678249 31.5984 0.69669 31.7456 0.734253C33.8133 1.25093 35.9271 2.7627 35.9271 10.0959C35.9271 11.6459 35.4784 12.7468 34.5933 13.3649C32.7011 14.6848 29.3882 13.4906 29.3544 13.4783L29.3169 13.4677C28.5058 13.2741 25.877 12.3531 25.877 8.61516C25.877 6.59593 27.4612 3.01302 29.502 1.4186Z" fill="#1C2420"/>
</g>
<defs>
<clipPath id="clip0_229_184">
<rect width="48.513" height="47.5617" fill="white"/>
</clipPath>
</defs>
</svg>
