<svg width="150" height="147" viewBox="0 0 150 147" fill="none" xmlns="http://www.w3.org/2000/svg">
<g clip-path="url(#clip0_108_184)">
<path d="M88.9461 66.0111C88.836 65.9283 88.7143 65.8706 88.5811 65.836C88.4479 65.8014 88.3136 65.794 88.1773 65.814C88.0409 65.8339 87.913 65.8779 87.7945 65.9482C87.677 66.0185 87.5763 66.1087 87.4934 66.2188C87.4106 66.3289 87.3529 66.4506 87.3183 66.5838C87.2847 66.7181 87.2763 66.8523 87.2963 66.9887C87.3162 67.125 87.3602 67.253 87.4305 67.3715C87.5008 67.49 87.591 67.5907 87.7011 67.6725C90.5319 69.7775 93.2253 72.0451 95.7813 74.4763C98.3384 76.9064 100.738 79.4834 102.982 82.2061C105.226 84.9278 107.298 87.7754 109.197 90.7489C111.095 93.7233 112.808 96.8006 114.334 99.9817C120.054 111.987 121.84 123.426 119.241 131.376C116.854 138.671 110.872 142.525 101.947 142.525C91.8765 142.525 82.3961 139.489 75.2557 133.973L74.6998 133.537C76.2321 131.797 77.5883 129.929 78.7682 127.933C82.2503 121.981 83.0726 116.369 80.9634 112.925C79.9303 111.235 77.689 109.282 72.9189 109.565C66.7716 109.926 63.1972 113.349 63.3713 118.724C63.5087 123.522 66.6552 129.084 71.7316 133.711C65.4019 140.179 56.0117 145.209 45.2066 144.798C37.6885 144.511 32.3961 141.862 29.4741 136.906C22.6703 125.395 29.4741 102.789 38.1458 85.4722C42.9526 75.8481 50.0669 69.1933 59.2914 65.6954C66.1906 63.0744 71.7442 63.3073 71.8102 63.3114C71.9487 63.3177 72.0819 63.2989 72.2119 63.2517C72.342 63.2055 72.4574 63.1363 72.5602 63.044C72.6619 62.9517 72.7427 62.8426 72.8014 62.7178C72.8601 62.593 72.8937 62.4619 72.9 62.3245C72.9073 62.1871 72.8874 62.0529 72.8412 61.9228C72.7951 61.7938 72.7259 61.6774 72.6336 61.5756C72.5402 61.4728 72.4322 61.3921 72.3074 61.3334C72.1836 61.2746 72.0525 61.2411 71.9141 61.2348C71.6739 61.2348 65.9326 60.9684 58.6306 63.7268C51.9149 66.2524 42.5835 71.9182 36.2695 84.5503C31.9525 93.1947 18.5736 122.583 27.6722 137.969C30.9928 143.555 36.8421 146.547 45.1069 146.867C45.5506 146.867 45.9869 146.892 46.4264 146.892C57.3479 146.892 66.8419 141.67 73.2839 135.053C73.5125 135.24 73.7453 135.427 73.9813 135.605C81.4868 141.421 91.4161 144.595 101.943 144.595C114.463 144.595 119.332 137.753 121.208 132.012C123.973 123.564 122.151 111.559 116.206 99.0808C114.645 95.8242 112.891 92.6745 110.947 89.6308C109.004 86.5881 106.883 83.6724 104.586 80.8867C102.289 78.1 99.833 75.4632 97.2172 72.9743C94.6003 70.4865 91.844 68.1654 88.9461 66.0111ZM73.1223 132.2C71.14 130.425 69.4367 128.414 68.0124 126.168C66.3857 123.547 65.4931 120.958 65.4218 118.691C65.298 114.453 68.004 111.957 73.0353 111.663C73.3122 111.646 73.5775 111.637 73.8324 111.637C76.4146 111.637 78.2113 112.443 79.1909 114.038C80.8522 116.771 80.0216 121.706 76.9705 126.916C75.8556 128.799 74.5729 130.56 73.1223 132.2Z" fill="#A3B18A"/>
<path d="M32.1634 67.2166C34.6837 64.1425 35.9623 60.1958 35.9623 55.4813C35.9623 49.0718 31.662 40.8805 25.9574 36.424C22.3882 33.6362 18.7225 32.6062 15.3599 33.4453C5.59316 35.8922 0.943661 40.4903 0.943661 60.03C0.943661 65.5175 2.60397 69.4674 5.92459 71.777C8.41558 73.5138 11.4625 74.0655 14.3478 74.0655C17.6034 74.0152 20.773 73.4614 23.8534 72.4042C24.6621 72.2091 25.4508 71.95 26.2175 71.628C26.9853 71.305 27.7215 70.9243 28.4285 70.4827C29.1343 70.0422 29.8003 69.5482 30.4275 68.9997C31.0537 68.4522 31.6327 67.8575 32.1634 67.2166ZM23.3217 70.3852C23.285 70.3852 23.243 70.3852 23.2052 70.4229C23.1025 70.4607 12.9193 74.1285 7.11607 70.0695C4.39748 68.1721 3.01931 64.7949 3.01931 60.03C3.01931 40.162 8.10408 37.4036 15.8623 35.4601C16.4602 35.3133 17.0653 35.2398 17.681 35.2398C20.4248 35.2398 22.9315 36.6977 24.6789 38.0601C29.9262 42.16 33.8866 49.6497 33.8866 55.4813C33.8866 66.967 25.8001 69.7789 23.3217 70.3852Z" fill="#A3B18A"/>
<path d="M135.513 33.4453C132.151 32.6146 128.489 33.6362 124.92 36.424C119.217 40.8805 114.915 49.0718 114.915 55.4813C114.915 60.1958 116.194 64.1425 118.714 67.2166C119.245 67.8564 119.823 68.449 120.449 68.9965C121.075 69.5429 121.741 70.0369 122.446 70.4764C123.152 70.9159 123.888 71.2966 124.655 71.6175C125.42 71.9395 126.208 72.1975 127.016 72.3916C130.098 73.4488 133.269 74.0026 136.527 74.054C139.407 74.054 142.462 73.5012 144.949 71.7644C148.27 69.4548 149.93 65.5049 149.93 60.0175C149.93 40.4903 145.281 35.8922 135.513 33.4453ZM143.762 70.0695C137.95 74.1284 127.772 70.4607 127.672 70.4229L127.552 70.3852C125.061 69.7915 116.991 66.967 116.991 55.4813C116.991 49.6665 120.947 42.16 126.195 38.0602C127.942 36.6977 130.449 35.2398 133.192 35.2398C133.808 35.2398 134.414 35.3133 135.011 35.4601C142.769 37.4036 147.854 40.162 147.854 60.03C147.854 64.7949 146.476 68.1721 143.762 70.0695Z" fill="#A3B18A"/>
<path d="M42.6246 43.5685C45.1156 45.3001 48.1625 45.8528 51.0468 45.8528C54.3034 45.8004 57.472 45.2466 60.5535 44.1915C61.3611 43.9953 62.1487 43.7373 62.9144 43.4153C63.6811 43.0933 64.4174 42.7116 65.1222 42.2721C65.8281 41.8316 66.493 41.3386 67.1192 40.7912C67.7453 40.2447 68.3243 39.6511 68.855 39.0113C71.3754 35.9414 72.6539 31.9914 72.6539 27.2801C72.6539 19.7369 66.9671 8.42208 60.7234 3.54501C57.7719 1.23968 54.7712 0.371246 52.0516 1.05299C41.9439 3.57858 37.6353 12.7789 37.6353 31.8205C37.6353 37.3038 39.3124 41.2589 42.6246 43.5685ZM52.554 3.06779C53.006 2.95347 53.4654 2.89788 53.9321 2.90103C55.6596 2.90103 57.5066 3.66563 59.4448 5.17805C65.7127 10.075 70.5783 21.0783 70.5783 27.2769C70.5783 38.7575 62.4917 41.5862 60.0133 42.1809L59.8979 42.2134C59.7941 42.2511 49.6109 45.9231 43.8077 41.8652C41.0891 39.9668 39.7109 36.5853 39.7109 31.8247C39.7109 19.1884 41.2339 5.8965 52.554 3.06779Z" fill="#A3B18A"/>
<path d="M90.4369 44.1831C93.5184 45.2393 96.6869 45.793 99.9425 45.8444C102.828 45.8444 105.883 45.2917 108.366 43.5601C111.686 41.2506 113.347 37.2954 113.347 31.8121C113.347 12.7706 109.038 3.56601 98.9304 1.04462C96.2107 0.363927 93.21 1.22292 90.2586 3.53664C84.0316 8.41371 78.328 19.7369 78.328 27.2728C78.3364 37.5702 84.576 42.7535 90.4369 44.1831ZM91.5455 5.17387C93.4838 3.66145 95.3308 2.90105 97.0582 2.90105C97.5249 2.9 97.9843 2.95664 98.4364 3.07201C104.787 4.65889 111.279 9.30207 111.279 31.8247C111.279 36.5853 109.901 39.9668 107.183 41.8652C101.371 45.9189 91.1962 42.2511 91.0924 42.2134L90.977 42.1809C88.486 41.5862 80.4121 38.7575 80.4121 27.277C80.4121 21.0752 85.2776 10.0709 91.5455 5.17387Z" fill="#A3B18A"/>
</g>
<defs>
<clipPath id="clip0_108_184">
<rect width="149" height="146.078" fill="white" transform="translate(0.934937 0.816772)"/>
</clipPath>
</defs>
</svg>
